<svg width="183" height="156" viewBox="0 0 183 156" fill="none" xmlns="http://www.w3.org/2000/svg">
<path fill-rule="evenodd" clip-rule="evenodd" d="M129.578 27.4717C128.619 27.7005 127.601 27.9228 126.529 28.1381C114.818 30.4883 96.5388 32 76 32C55.4612 32 37.182 30.4883 25.4714 28.1381C24.3986 27.9228 23.381 27.7005 22.4217 27.4717C15.8319 25.8995 12 24.0197 12 22C12 19.9803 15.8319 18.1005 22.4217 16.5283C23.381 16.2995 24.3986 16.0772 25.4714 15.8619C37.182 13.5117 55.4612 12 76 12C96.5388 12 114.818 13.5117 126.529 15.8619C127.601 16.0772 128.619 16.2995 129.578 16.5283C136.168 18.1005 140 19.9803 140 22C140 24.0197 136.168 25.8995 129.578 27.4717ZM123.107 40.9272C110.744 42.859 94.0951 44 76 44C57.9049 44 41.2561 42.859 28.8926 40.9272C22.8051 39.976 17.2102 38.7519 12.8711 37.1489C10.77 36.3727 8.24181 35.2512 6.01766 33.5528C4.0445 32.0462 0 28.2682 0 22C0 15.7318 4.0445 11.9538 6.01766 10.4472C8.24181 8.74885 10.77 7.62726 12.8711 6.85107C17.2102 5.24814 22.8051 4.02397 28.8926 3.07279C41.2561 1.14099 57.9049 0 76 0C94.0951 0 110.744 1.14099 123.107 3.07279C129.195 4.02397 134.79 5.24814 139.129 6.85107C141.23 7.62726 143.758 8.74885 145.982 10.4472C147.955 11.9538 152 15.7318 152 22C152 28.2682 147.955 32.0462 145.982 33.5528C143.758 35.2512 141.23 36.3727 139.129 37.1489C134.79 38.7519 129.195 39.976 123.107 40.9272Z" fill="#FFB400"/>
<path d="M31.61 91.9977C14.1166 91.7888 0 77.5429 0 60H107C133.51 60 155 81.4903 155 108C155 124.498 146.677 139.052 134 147.692V156H103C85.6614 156 71.5436 142.21 71.0153 125H71C51.2958 125 34.9192 110.753 31.61 91.9977Z" fill="#004F58"/>
<path d="M28 60C28 77.5429 42.1166 91.7888 59.61 91.9977C62.9192 110.753 79.2958 125 99 125C99.0051 125 99.0102 125 99.0153 125C99.5436 142.21 113.661 156 131 156H135C161.51 156 183 134.51 183 108C183 81.4903 161.51 60 135 60H28Z" fill="#009AAB"/>
</svg>
